<?xml version="1.0" standalone="no"?>
<!DOCTYPE svg PUBLIC "-//W3C//DTD SVG 20010904//EN"
 "http://www.w3.org/TR/2001/REC-SVG-20010904/DTD/svg10.dtd">
<svg version="1.0" xmlns="http://www.w3.org/2000/svg"
 width="700.000000pt" height="700.000000pt" viewBox="0 0 700.000000 700.000000"
 preserveAspectRatio="xMidYMid meet">
<metadata>
Created by potrace 1.11, written by Peter Selinger 2001-2013
</metadata>
<g transform="translate(0.000000,700.000000) scale(0.100000,-0.100000)"
fill="#000000" stroke="none">
<path d="M3215 6989 c-985 -84 -1871 -564 -2480 -1344 -395 -506 -644 -1124
-717 -1780 -17 -155 -17 -575 0 -730 63 -570 255 -1100 567 -1570 270 -405
644 -771 1047 -1024 457 -287 944 -456 1503 -523 139 -16 595 -16 730 0 635
77 1173 282 1670 635 293 208 602 518 813 813 350 491 559 1042 634 1669 16
139 16 595 0 730 -61 497 -198 932 -418 1327 -537 964 -1490 1621 -2569 1772
-249 35 -546 45 -780 25z m413 -179 c206 -22 366 -67 552 -156 470 -225 798
-645 912 -1167 19 -89 22 -131 22 -327 0 -195 -3 -238 -22 -327 -113 -518
-431 -929 -898 -1162 -218 -109 -419 -156 -719 -171 -278 -13 -429 -41 -620
-117 -515 -203 -892 -651 -1017 -1210 -19 -86 -22 -128 -22 -333 0 -205 3
-247 22 -333 115 -515 437 -929 901 -1158 149 -73 387 -146 486 -150 17 0 24
-3 17 -6 -18 -7 -209 13 -351 38 -576 100 -1144 368 -1586 750 -643 556 -1048
1322 -1140 2159 -19 176 -19 544 0 720 59 531 240 1031 536 1475 437 654 1087
1134 1831 1350 357 104 808 155 1096 125z m72 -5005 l0 -715 105 0 105 0 0
233 c0 257 2 266 64 292 40 17 79 9 111 -22 l25 -26 0 -309 0 -310 -29 -29
-29 -29 -459 0 -459 0 -29 30 c-43 45 -42 101 3 141 l32 29 175 0 175 0 0 609
0 610 -176 3 -176 3 -29 33 c-42 46 -40 93 5 138 l34 34 276 0 276 0 0 -715z"/>
<path d="M3086 6263 c-45 -12 -96 -57 -121 -106 l-25 -51 0 -655 c0 -613 2
-659 19 -696 21 -46 79 -101 119 -112 15 -5 192 -8 393 -8 l366 0 48 30 c32
20 56 45 72 74 l23 44 0 666 c0 626 -2 668 -19 706 -22 48 -54 79 -103 100
-32 13 -93 15 -395 14 -197 -1 -367 -4 -377 -6z m694 -813 l0 -610 -315 0
-315 0 0 610 0 610 315 0 315 0 0 -610z"/>
</g>
</svg>
