<svg version="1" xmlns="http://www.w3.org/2000/svg" width="933.333" height="933.333" viewBox="0 0 700.000000 700.000000"><path d="M322.5 1.1c-58.5 5.4-109.4 22.2-158 52.1-35.9 22.1-74.4 58.3-99.1 93.3-35 49.3-55.7 103.1-63 163.5-2.2 17.6-2.5 59-.6 75.5 9.3 81 42.3 151.5 97.6 208.4C156 652 228.5 687.7 310.1 697.6c17.6 2.2 59 2.5 75.4.6 59.2-6.9 110.3-25.3 157.5-56.7 19.9-13.2 34.1-24.7 50.9-41 53.4-52 88.9-119.4 101-192 3.6-21.5 4.5-33.6 4.5-58.5s-.9-37.1-4.5-58.5c-9.9-58.8-34.6-113.6-72.8-161.5-10.1-12.6-39.1-41.7-51.6-51.7C516.7 35.5 457.7 10.6 391 2.5c-16-1.9-54.4-2.7-68.5-1.4zm43.5 18c50.2 6.2 92.8 32.8 120.4 75.2 27 41.3 33.7 94 18 141.7-4.5 13.7-13.8 32.1-22.2 44-8.6 12.2-27.1 30.7-39 39-28.5 20-62.4 31-95.5 31-30.9 0-63.8 9.4-89.4 25.7-16.3 10.3-35.4 28.3-46.4 43.9C181 463 172.8 518.1 189.6 569c8 24.1 20.8 44.5 39.8 63.6 14.7 14.6 24.1 21.6 40.7 30.3 16.4 8.4 30.9 13.5 48.4 16.6 6.1 1.2 6.5 1.3 2.8 1.4-5.6.1-25.3-2.4-38.3-5-92.5-18.1-173.5-75.2-221.6-156.1C12 436.7 1.3 336.1 32 244.1c21.4-63.7 62.9-120.6 118-161.5 47.8-35.5 107.8-58.3 167-63.5 14-1.2 39.4-1.2 49 0zM376 522v73h21v-21.9c0-22.7.4-25.8 4.2-29.8 4.3-4.6 12.4-3.6 16.2 1.9 2.4 3.4 2.4 63.2 0 66.6-3.6 5.2-4 5.2-51.4 5.2-48.4 0-48.8 0-52.3-5.9-2.5-4.3-2.1-7.6 1.4-11.6l3.1-3.5H355V471h-17.5c-19.2 0-21.1-.5-24.1-6.1-1.9-3.7-1.8-6.4.3-10 3.3-5.5 5.2-5.9 35.1-5.9H376v73zm-45.7 159.7c-.7.2-2.1.2-3 0-1-.3-.4-.5 1.2-.5 1.7 0 2.4.2 1.8.5z"/><path d="M315.5 67.5c-.5.2-2.2.6-3.7.9-3.9.9-9.8 6.4-11.9 11.2-1.7 3.7-1.8 8.9-1.9 72.1-.2 73.7-.4 70.8 5.2 76 5.5 5.1 6.9 5.3 47.5 5.3 34.5 0 38.2-.2 41.8-1.9 5-2.2 9.1-6.9 10.5-11.9 1.4-5.1 1.4-132.3-.1-137.5-1.2-4.4-5.9-10.1-10.3-12.5-2.7-1.5-7.4-1.7-39.6-1.9-20.1-.1-36.9 0-37.5.2zm68.5 83V213h-65V88h65v62.5z"/></svg>